<svg version="1.1" id="Layer_1" xmlns="http://www.w3.org/2000/svg" xmlns:xlink="http://www.w3.org/1999/xlink" x="0px" y="0px"
	 width="100%" viewBox="0 0 992 800" enable-background="new 0 0 992 800" xml:space="preserve">
<path fill="#000000" opacity="1.000000" stroke="none" 
	d="
M699.395142,256.000122 
	C699.391235,333.990784 699.165222,411.482635 699.590942,488.970917 
	C699.665588,502.554840 694.115845,511.899261 683.795410,519.312683 
	C667.936279,530.704590 649.680298,536.505493 631.060486,541.260376 
	C599.972595,549.199219 568.277527,552.859070 536.286438,554.522034 
	C489.211395,556.969116 442.408234,554.925476 396.000061,546.359070 
	C374.184998,542.332214 352.718109,536.978943 332.697693,527.009644 
	C327.618958,524.480713 322.807770,521.501160 318.326141,518.001221 
	C308.959198,510.686035 304.424316,501.640167 304.450226,489.218048 
	C304.728424,355.734680 304.688477,222.250397 304.457947,88.766830 
	C304.438812,77.700386 308.612946,69.494408 316.737122,62.783413 
	C328.659241,52.935116 342.768646,47.385689 357.266693,42.777428 
	C382.748260,34.678005 408.967560,30.330313 435.512054,27.542965 
	C460.216583,24.948824 484.987213,23.519991 509.793274,24.041100 
	C554.815308,24.986889 599.541138,28.784517 642.986145,41.701969 
	C658.841248,46.416161 674.283997,52.233871 687.262329,63.005066 
	C695.224182,69.612907 699.542542,77.665421 699.491943,88.522331 
	C699.232422,144.180527 699.385498,199.840652 699.395142,256.000122 
M344.434570,396.199280 
	C335.856171,393.062195 327.869446,388.703186 320.177490,383.691406 
	C318.514008,386.242645 319.099945,388.458405 319.096283,390.535828 
	C319.038727,423.188477 319.300232,455.844818 318.853363,488.491608 
	C318.733459,497.251465 322.198883,503.017487 328.860443,507.768402 
	C337.374146,513.840271 346.894562,517.800903 356.693878,521.109070 
	C396.513367,534.551941 437.818329,539.025940 479.490295,540.531982 
	C507.779327,541.554443 536.071472,540.845642 564.287598,537.831238 
	C590.148071,535.068481 615.719604,530.938782 640.611694,523.294495 
	C653.528259,519.327820 666.179932,514.593201 677.046387,506.194519 
	C682.177795,502.228363 684.961792,497.360535 684.908569,490.414764 
	C684.649597,456.597748 684.794189,422.777710 684.736023,388.958832 
	C684.733154,387.289825 685.547363,385.297302 683.418640,383.767853 
	C669.490662,393.167175 653.923950,398.926605 637.833008,403.415924 
	C602.360474,413.312744 566.009827,417.413086 529.375977,418.989899 
	C490.047211,420.682709 450.798798,419.063934 411.846191,413.073517 
	C389.141144,409.581757 366.628998,405.048584 344.434570,396.199280 
M684.626160,359.675049 
	C684.626160,322.464905 684.626160,285.254761 684.626160,247.025726 
	C671.596680,255.658768 658.461243,261.195648 644.721375,265.376343 
	C607.008423,276.851501 568.192932,281.370605 529.022095,282.976624 
	C485.827637,284.747559 442.757629,282.804443 400.137146,275.097656 
	C372.550262,270.109283 345.303619,263.757843 321.151825,248.420578 
	C320.796173,248.194717 320.229004,248.301941 319.730560,248.250626 
	C318.622528,250.391830 319.085632,252.590836 319.083374,254.698074 
	C319.048523,287.195953 319.396790,319.699371 318.858246,352.188324 
	C318.700562,361.701630 322.809448,367.564301 329.905151,372.446899 
	C338.503387,378.363342 348.066986,382.276672 357.888336,385.528320 
	C397.460510,398.629974 438.450897,403.000916 479.802155,404.529541 
	C499.097076,405.242798 518.423096,404.988220 537.749512,403.881348 
	C567.398193,402.183319 596.733276,398.577728 625.580200,391.470673 
	C641.460388,387.558228 657.064392,382.759155 671.208069,374.227203 
	C676.813904,370.845490 682.104858,367.047974 684.626160,359.675049 
M345.883850,124.747826 
	C336.800812,121.519173 328.382843,116.899925 320.206909,111.859291 
	C318.655945,113.920830 319.117065,115.814110 319.115021,117.571602 
	C319.075500,151.233002 319.176971,184.895004 318.984253,218.555374 
	C318.950714,224.411484 320.915649,228.836563 325.152679,232.597504 
	C332.642883,239.246048 341.493530,243.440720 350.756836,246.852356 
	C393.008820,262.413513 437.136993,266.944946 481.674072,268.555328 
	C505.474609,269.415924 529.287048,268.840363 553.058044,266.807617 
	C582.141174,264.320648 610.906738,260.151367 638.929932,251.749557 
	C651.565308,247.961288 663.894836,243.384338 674.867554,235.816238 
	C681.395203,231.313934 685.075806,225.796448 684.960754,217.115463 
	C684.521606,183.959625 684.790955,150.794586 684.738159,117.633049 
	C684.735168,115.751900 685.477539,113.647835 683.578674,111.682533 
	C673.538269,118.311996 662.726318,123.388969 651.334412,127.200706 
	C611.966309,140.373291 571.153259,145.084427 529.999084,146.955765 
	C490.840057,148.736343 451.737762,147.149902 412.918304,141.209869 
	C390.354553,137.757248 368.022003,133.238541 345.883850,124.747826 
M498.500122,132.773102 
	C525.840149,133.018265 553.061707,131.462570 580.178162,127.841187 
	C604.656250,124.572166 628.781982,119.852219 652.008911,111.273735 
	C661.881042,107.627625 671.513733,103.356522 679.351746,96.064629 
	C686.631470,89.292107 686.550659,82.245491 679.316772,75.418831 
	C675.658875,71.966850 671.411987,69.350304 666.966614,67.005524 
	C652.702881,59.481865 637.382568,55.004337 621.805115,51.305027 
	C579.925415,41.359516 537.353638,38.445675 494.453278,38.882153 
	C457.901520,39.254044 421.631256,42.313988 385.911499,50.397285 
	C367.690460,54.520668 349.693298,59.421516 333.410492,69.028816 
	C328.817596,71.738754 324.387268,74.708183 321.318970,79.287552 
	C318.368073,83.691673 318.407318,88.024361 321.444885,92.298668 
	C324.086395,96.015724 327.539612,98.875237 331.366180,101.317047 
	C343.738861,109.212341 357.482697,113.816101 371.484772,117.607986 
	C412.738770,128.779922 454.923309,132.464493 498.500122,132.773102 
z"/>
<path fill="#000000" opacity="1.000000" stroke="none" 
	d="
M777.296509,413.346191 
	C778.731140,408.497894 780.007629,404.015961 781.339844,399.550629 
	C782.157227,396.810760 781.329834,395.154785 778.514343,394.245911 
	C762.486694,389.072083 746.833862,382.919952 731.674500,375.584351 
	C727.774841,373.697327 725.104858,377.116516 721.187622,377.144897 
	C721.187622,371.095276 721.187622,365.118195 721.187622,359.149414 
	C721.587036,359.031464 722.020020,358.758545 722.191467,358.874054 
	C727.555908,362.487396 732.263184,360.422821 737.344360,357.760223 
	C754.921570,348.549500 772.055359,338.617432 788.686218,327.791901 
	C792.076111,325.585358 793.544617,322.969482 793.791199,318.834930 
	C795.052490,297.691620 794.972046,276.574371 793.752258,255.434830 
	C793.546875,251.875916 792.372375,249.573090 789.442383,247.652283 
	C771.169678,235.673370 752.241821,224.868546 732.837097,214.820129 
	C728.268799,212.454544 725.310364,215.939392 721.020447,215.877243 
	C720.407410,209.845596 720.587036,203.981537 720.910828,196.925415 
	C728.863159,202.879333 734.880188,197.609863 741.190002,194.874222 
	C753.121094,189.701462 765.249512,185.065216 777.558044,180.892075 
	C780.086914,180.034683 782.427551,179.236511 781.457275,175.797516 
	C775.285217,153.921677 768.331543,132.388885 753.981384,114.165161 
	C748.833557,107.627686 742.724915,102.425072 734.503540,100.026283 
	C730.186096,98.766556 725.932556,99.700806 721.690491,99.931564 
	C720.086182,97.901955 720.944214,95.646896 720.651794,93.571747 
	C720.132324,89.885170 722.023193,88.452164 725.399414,88.157326 
	C735.995178,87.232071 745.064758,90.892448 753.009460,97.559731 
	C765.594360,108.121086 773.324280,122.079506 779.911133,136.781296 
	C784.823364,147.745407 788.684875,159.093170 791.629639,170.725693 
	C792.676270,174.859955 794.322815,175.907867 798.610657,174.748856 
	C817.146240,169.738525 835.978394,166.375366 855.279297,167.012253 
	C863.930908,167.297729 872.489807,168.495529 880.736511,171.502777 
	C900.755188,178.802902 909.540955,194.944672 904.836731,215.814636 
	C900.176575,236.488739 888.182983,253.015198 874.939941,268.798065 
	C869.617371,275.141357 863.815674,281.082642 857.930115,287.537903 
	C861.751831,291.601166 865.436279,295.404266 868.994385,299.322052 
	C881.709412,313.322327 893.121582,328.215118 900.634155,345.768372 
	C903.609375,352.720032 905.413452,359.971161 906.014648,367.479095 
	C907.255127,382.971344 898.624817,396.280731 883.107849,402.538818 
	C871.323486,407.291504 858.953247,408.566833 846.330139,407.893738 
	C829.651733,407.004395 813.224304,404.493988 797.156921,399.942261 
	C793.199402,398.821106 792.636475,400.959961 791.885315,403.770325 
	C787.615662,419.745239 782.102539,435.264404 774.229431,449.848022 
	C767.850769,461.663483 760.380249,472.633545 749.032166,480.385132 
	C742.501221,484.846252 735.282959,487.147644 727.401611,486.895050 
	C720.968018,486.688812 720.614380,486.151550 720.682312,479.841583 
	C720.699646,478.227905 720.234375,476.496552 721.598572,474.781586 
	C737.159302,478.547058 747.079346,469.679108 755.596008,458.538086 
	C765.846741,445.128784 771.894043,429.585327 777.296509,413.346191 
M893.588440,358.979553 
	C885.839783,333.101593 867.778320,314.501129 849.843567,295.847534 
	C848.810608,296.329102 848.295715,296.447937 847.939819,296.752533 
	C834.533020,308.225311 820.881348,319.386383 806.373535,329.458405 
	C804.519775,330.745361 804.148010,332.645386 803.940857,334.678986 
	C802.256104,351.218750 800.117249,367.690643 796.531311,383.944916 
	C795.976196,386.460938 796.755798,388.025574 799.444641,388.748260 
	C821.735596,394.739319 844.198181,399.049469 867.422546,395.626556 
	C888.512268,392.518280 898.324707,379.086700 893.588440,358.979553 
M801.268616,217.495377 
	C802.009766,224.437729 802.670471,231.390045 803.530151,238.317688 
	C803.891846,241.232834 804.234436,244.070297 807.188782,246.089966 
	C820.813721,255.404465 833.668701,265.729370 846.003052,276.687469 
	C848.452576,278.863586 850.117432,278.525482 852.295410,276.346069 
	C858.421814,270.215424 864.435303,263.984894 869.876587,257.238159 
	C880.384155,244.209732 890.140015,230.681107 893.959351,213.988647 
	C896.230957,204.060638 895.110474,194.681946 886.798767,187.498688 
	C882.566345,183.840942 877.576721,181.478561 872.126221,180.335632 
	C847.078003,175.083298 822.841309,180.070374 798.719666,186.333069 
	C796.037415,187.029465 796.147400,189.081009 796.513672,191.122269 
	C798.039490,199.625473 799.625427,208.117905 801.268616,217.495377 
M788.875793,362.602264 
	C790.058655,355.293304 791.378845,347.998779 791.713257,339.417908 
	C775.540894,349.877686 759.623840,358.760193 742.647522,368.008301 
	C756.121338,374.157776 768.453735,379.048462 781.117310,383.130341 
	C784.138062,384.104065 785.356445,383.199341 785.812805,380.127014 
	C786.640930,374.552795 787.765015,369.022552 788.875793,362.602264 
M791.489258,229.587479 
	C789.766174,218.256485 788.317200,206.885742 786.000488,195.644028 
	C785.187256,191.697601 783.623657,190.771027 779.798828,192.114319 
	C768.644836,196.031677 757.633179,200.292252 746.783630,204.976852 
	C745.661194,205.461487 744.133728,205.655731 744.034363,207.827148 
	C759.744507,216.098129 775.277710,224.988968 790.462341,234.591171 
	C791.884094,233.009201 791.569214,231.657028 791.489258,229.587479 
M805.351440,264.899841 
	C806.595276,281.451752 805.985229,298.025330 805.168640,315.831940 
	C818.389343,306.985535 829.296570,297.433411 840.737244,287.540100 
	C829.446960,277.403717 818.376404,268.035797 806.390686,259.795441 
	C804.985168,261.393127 805.524170,262.787476 805.351440,264.899841 
z"/>
<path fill="#000000" opacity="1.000000" stroke="none" 
	d="
M226.380280,751.543335 
	C235.022369,748.317566 238.975998,743.201233 238.615433,736.125000 
	C238.234528,728.649719 233.710297,723.486572 225.551834,721.034058 
	C219.218796,719.130371 212.713531,719.118225 206.243408,719.431152 
	C201.258560,719.672241 199.173538,717.406189 199.014969,712.788513 
	C198.946594,710.797180 198.943863,708.787231 199.133606,706.807007 
	C199.471527,703.280945 201.322098,701.503967 205.075592,701.608948 
	C210.392014,701.757629 215.713760,701.841980 220.985062,700.696655 
	C228.159531,699.137939 233.531509,694.366028 234.572754,688.367310 
	C236.205414,678.961426 230.206955,671.762695 220.309494,671.457642 
	C212.510452,671.217285 205.761047,674.479858 199.195206,678.210999 
	C193.033340,681.712524 191.351593,680.456909 190.672073,673.277893 
	C189.872849,664.833984 193.394897,659.815308 201.015610,656.681091 
	C213.897598,651.383118 227.010513,649.812744 240.529037,653.452698 
	C252.750137,656.743225 260.073761,664.949707 261.268585,676.248962 
	C262.809052,690.816711 257.865021,700.922791 246.150223,707.173035 
	C245.595413,707.469055 245.079544,707.838074 244.078751,708.465942 
	C245.583374,709.070923 246.602890,709.525513 247.652023,709.896301 
	C273.241364,718.938171 270.580078,749.289673 255.532715,761.919495 
	C248.546127,767.783447 240.295151,770.705444 231.381302,771.787537 
	C218.791260,773.315796 206.431488,772.455383 194.766876,766.995728 
	C188.701584,764.156860 185.578918,752.109009 189.189041,746.440125 
	C190.826462,743.868896 192.861923,744.816040 194.848389,745.825378 
	C200.205826,748.547668 205.669617,750.859314 211.658493,751.950439 
	C216.510117,752.834412 221.236511,752.856140 226.380280,751.543335 
z"/>
<path fill="#000000" opacity="1.000000" stroke="none" 
	d="
M489.315491,667.659058 
	C488.940369,672.061096 486.656403,673.411072 482.865936,673.373413 
	C471.710480,673.262451 460.550446,673.478760 449.398193,673.260742 
	C445.383911,673.182312 444.135895,674.650696 444.302155,678.496887 
	C444.546387,684.148071 444.535767,689.823242 444.325500,695.476685 
	C444.182953,699.309387 445.466125,700.831482 449.473480,700.725281 
	C458.292572,700.491577 467.122284,700.633606 475.947510,700.667969 
	C481.540100,700.689758 482.955719,702.047729 483.284851,707.651794 
	C483.382294,709.310608 483.347992,710.982178 483.284882,712.644531 
	C483.112335,717.189819 481.222168,719.587646 476.168396,719.429443 
	C467.185333,719.148254 458.183960,719.489746 449.196838,719.283386 
	C445.448608,719.197388 444.215332,720.571472 444.314148,724.221863 
	C444.507843,731.376648 444.557220,738.547852 444.286957,745.697937 
	C444.131897,749.799927 445.820190,750.776917 449.589386,750.715027 
	C460.742859,750.531860 471.904755,750.816467 483.056305,750.581909 
	C487.544067,750.487549 489.533386,752.442200 489.881378,756.575623 
	C490.062164,758.722900 490.242340,760.906372 490.056122,763.041504 
	C489.514191,769.254761 488.260376,770.337952 481.937103,770.345825 
	C464.952484,770.367004 447.967896,770.370728 430.983276,770.356995 
	C422.114288,770.349854 420.102753,768.437744 420.082916,759.554382 
	C420.021210,731.912903 420.039673,704.271240 420.039795,676.629639 
	C420.039795,671.801392 419.882050,666.959290 420.187805,662.148315 
	C420.609924,655.506836 422.680389,653.684692 429.289337,653.671509 
	C446.440369,653.637268 463.591553,653.657104 480.742676,653.664001 
	C488.567657,653.667175 489.317657,654.417297 489.354156,662.203491 
	C489.361938,663.868652 489.341705,665.533875 489.315491,667.659058 
z"/>
<path fill="#000000" opacity="1.000000" stroke="none" 
	d="
M325.794098,697.683105 
	C329.221100,698.169189 332.225922,698.434570 335.119934,699.148743 
	C350.192627,702.868347 358.058380,711.778076 360.092102,727.229370 
	C362.208221,743.306702 355.039307,758.906921 341.744080,765.889526 
	C324.553223,774.918030 306.812195,774.298035 289.063538,767.621033 
	C283.726074,765.613098 282.151489,760.978516 283.108215,752.760193 
	C283.966492,745.387146 285.326660,744.559631 291.820282,747.790649 
	C300.934631,752.325684 310.400208,753.843689 320.413269,751.622375 
	C329.306549,749.649475 334.058716,743.528687 334.006348,733.962830 
	C333.954163,724.429749 329.537750,719.271423 320.146454,717.303223 
	C312.493774,715.699463 304.915710,716.844788 297.282928,717.278503 
	C288.604736,717.771545 287.666229,716.735657 287.656281,708.251221 
	C287.638519,693.093445 287.628784,677.935547 287.661316,662.777832 
	C287.678070,654.967773 288.971649,653.669067 296.548615,653.664001 
	C313.038971,653.652893 329.530914,653.788940 346.018738,653.584290 
	C350.726288,653.525818 352.754028,655.580933 353.168915,659.899170 
	C353.280243,661.057983 353.319366,662.226746 353.332642,663.391541 
	C353.444611,673.210693 352.343109,674.350220 342.783234,674.355225 
	C332.955627,674.360352 323.126221,674.476196 313.301422,674.313477 
	C309.761902,674.254883 308.062927,675.192627 308.271973,679.069641 
	C308.531647,683.886230 308.439636,688.730164 308.301453,693.556641 
	C308.217010,696.504944 309.222717,697.820862 312.330109,697.695374 
	C316.653656,697.520752 320.989929,697.662964 325.794098,697.683105 
z"/>
<path fill="#000000" opacity="1.000000" stroke="none" 
	d="
M138.539413,698.418701 
	C139.168182,696.121094 139.758499,694.211426 140.165192,692.263550 
	C142.703842,680.103882 134.431351,671.596008 122.092705,673.681274 
	C115.911522,674.726013 110.445732,677.489868 105.147118,680.724915 
	C100.891937,683.322937 98.892822,682.323059 97.909538,677.409607 
	C95.761459,666.675842 98.299301,661.393555 108.215797,657.062561 
	C122.113022,650.993042 136.413269,649.271423 150.960892,654.518311 
	C162.880386,658.817444 168.745087,668.204285 169.512848,680.841187 
	C170.603714,698.795837 161.475739,711.973328 150.417358,724.317932 
	C142.661621,732.975769 134.414520,741.193359 126.352623,749.643433 
	C127.506927,751.331116 129.137299,750.605408 130.474182,750.612671 
	C142.461548,750.677551 154.449448,750.631470 166.437088,750.661194 
	C172.451324,750.676086 174.050522,752.253906 174.319824,758.291565 
	C174.379105,759.620972 174.364639,760.955872 174.331161,762.286865 
	C174.159561,769.110840 172.900162,770.357605 166.062180,770.362183 
	C145.583176,770.375916 125.104156,770.387573 104.625198,770.362000 
	C97.502983,770.353088 95.981537,768.588684 95.529160,761.601074 
	C95.069138,754.495361 97.123840,748.707947 102.185120,743.569275 
	C110.006569,735.628418 117.453758,727.316589 124.993515,719.101318 
	C130.543182,713.054382 135.216644,706.402039 138.539413,698.418701 
z"/>
<path fill="#000000" opacity="1.000000" stroke="none" 
	d="
M553.976196,703.211243 
	C565.664734,678.325928 595.958862,678.005859 611.517822,686.267090 
	C622.415283,692.053223 626.891479,702.024475 628.235413,713.645020 
	C628.708923,717.739014 629.537842,721.880127 628.787231,726.077454 
	C627.839172,731.378479 625.814819,733.294983 620.437195,733.317383 
	C606.439636,733.375793 592.441528,733.325806 578.443787,733.353027 
	C573.323730,733.362976 572.637573,734.254517 573.650391,739.267761 
	C575.595459,748.895935 582.366577,754.258911 593.022095,754.619629 
	C601.463440,754.905396 609.544800,753.083801 617.524719,750.550598 
	C622.872070,748.853149 624.401245,749.910034 625.100403,755.499878 
	C626.185425,764.174744 624.059204,767.270203 615.691956,769.523743 
	C604.771912,772.464600 593.661621,773.418030 582.524719,771.688477 
	C562.824280,768.628967 553.218628,759.018005 550.004761,739.317383 
	C548.014832,727.119385 548.970215,715.095459 553.976196,703.211243 
M579.165222,702.622375 
	C576.029602,705.421814 574.782471,709.180603 573.730042,713.080688 
	C572.856689,716.316956 573.819702,717.736328 577.306091,717.686707 
	C585.291687,717.572937 593.285156,717.487488 601.265320,717.727783 
	C605.371521,717.851440 605.997070,715.922729 605.615173,712.517273 
	C604.165222,699.589050 590.997742,694.286255 579.165222,702.622375 
z"/>
<path fill="#000000" opacity="1.000000" stroke="none" 
	d="
M750.233826,670.196960 
	C750.238770,683.550720 750.238770,683.550720 763.391907,683.649414 
	C770.016907,683.699158 771.357117,685.295837 771.328308,693.104614 
	C771.299622,700.885071 770.034485,702.322754 763.182068,702.352661 
	C761.183960,702.361389 759.185913,702.358215 757.187805,702.364563 
	C750.247253,702.386597 750.223267,702.387268 750.227356,709.083130 
	C750.233826,719.739258 750.137390,730.398071 750.343323,741.050720 
	C750.536621,751.053223 755.038086,754.429810 764.447144,751.449585 
	C768.950134,750.023254 770.578552,751.587463 771.181763,755.747131 
	C772.797546,766.890320 769.024353,771.581360 757.738586,772.292664 
	C736.233154,773.648010 726.808838,764.886475 726.679260,743.310181 
	C726.608276,731.488586 726.526917,719.663818 726.735291,707.845520 
	C726.806946,703.781250 725.556152,702.224792 721.363892,702.285828 
	C714.640564,702.383850 713.638977,700.904724 713.652588,692.731323 
	C713.665466,685.010803 714.697144,683.555847 721.380493,683.733032 
	C725.658447,683.846436 726.999146,682.182190 726.697388,678.170349 
	C726.460754,675.024963 726.808167,671.838562 726.631592,668.685120 
	C726.364746,663.916992 729.021912,662.035889 733.233826,661.752258 
	C736.218140,661.551331 739.226868,661.600525 742.220886,661.681702 
	C748.647400,661.856018 749.970703,663.227051 750.233826,670.196960 
z"/>
<path fill="#000000" opacity="1.000000" stroke="none" 
	d="
M920.907959,706.989258 
	C914.698059,718.024719 914.804504,729.439697 918.226624,740.663208 
	C921.651428,751.895386 932.676941,755.697754 943.770752,750.212219 
	C946.586731,748.819885 949.194214,746.958435 951.761108,745.122009 
	C955.020325,742.790283 956.964966,743.714172 958.004028,747.321838 
	C961.261963,758.632629 957.674622,765.488159 946.539001,769.589111 
	C936.994873,773.103943 927.291626,773.352478 917.584839,770.771851 
	C907.843567,768.182068 900.580261,762.142639 896.773010,752.815063 
	C889.629517,735.313599 889.710388,717.660278 898.108459,700.616638 
	C908.889648,678.736572 938.676331,677.537415 953.789917,687.422546 
	C958.360535,690.412048 960.015076,702.165771 956.667542,706.695129 
	C954.732178,709.313660 952.553345,708.144165 950.512329,706.912903 
	C946.820923,704.686340 943.388855,702.040283 939.020508,701.072693 
	C931.927002,699.501404 925.805237,700.723816 920.907959,706.989258 
z"/>
<path fill="#000000" opacity="1.000000" stroke="none" 
	d="
M649.511902,696.598022 
	C661.421631,681.238892 685.362915,676.783020 701.568115,686.644470 
	C707.073425,689.994629 709.509277,701.799133 705.645386,706.747375 
	C703.749939,709.174805 701.608398,708.348328 699.491516,706.934204 
	C695.891602,704.529297 692.270386,702.180908 687.978455,701.111206 
	C678.614624,698.777283 670.681458,702.545532 667.551697,711.557251 
	C664.070374,721.581299 663.958008,731.889465 667.630920,741.892090 
	C671.453308,752.302063 682.539490,755.652466 693.417786,749.962158 
	C696.054016,748.583130 698.432556,746.704285 700.900818,745.013367 
	C703.844482,742.996643 705.837219,743.651062 706.944702,747.047729 
	C710.322449,757.406555 706.700928,765.136963 696.671936,769.152893 
	C687.059631,773.002014 677.175110,773.495911 667.284912,770.920898 
	C656.849731,768.203918 649.034790,761.837891 645.295837,751.584351 
	C638.463135,732.846619 638.840149,714.456848 649.511902,696.598022 
z"/>
<path fill="#000000" opacity="1.000000" stroke="none" 
	d="
M532.343933,730.000122 
	C532.344055,741.820679 532.194824,753.144104 532.416321,764.460327 
	C532.505127,768.994080 530.361755,770.802429 526.308167,771.241150 
	C525.812439,771.294800 525.312134,771.316345 524.813293,771.328857 
	C505.687469,771.809753 508.867126,770.109253 508.836151,756.305054 
	C508.759888,722.343567 508.804810,688.381836 508.819305,654.420166 
	C508.822876,645.973389 509.966400,644.821472 518.223328,644.667725 
	C532.041199,644.410461 532.349915,644.714111 532.348999,658.580078 
	C532.347473,682.220093 532.345337,705.860046 532.343933,730.000122 
z"/>
<path fill="#000000" opacity="1.000000" stroke="none" 
	d="
M786.795715,724.000000 
	C786.800049,712.500488 786.762939,701.500671 786.826965,690.501526 
	C786.862976,684.319824 788.361450,682.859253 794.493164,682.661804 
	C795.825134,682.618835 797.159607,682.638428 798.492737,682.650085 
	C805.908630,682.714661 806.715820,683.477234 807.263672,690.824341 
	C807.308777,691.429016 807.529724,692.020569 807.822083,693.275391 
	C810.344849,690.860413 812.422302,688.787109 814.590088,686.813049 
	C820.265686,681.644775 826.870544,680.541992 834.142151,682.457458 
	C835.444946,682.800659 836.712830,683.182678 837.644531,684.234802 
	C839.866882,686.744263 840.068848,700.873718 837.956116,703.656555 
	C836.443909,705.648315 834.549377,705.217834 832.527954,704.726379 
	C821.358093,702.010376 810.380066,710.690308 810.354431,722.266663 
	C810.323364,736.265991 810.208496,750.267578 810.421997,764.263733 
	C810.494507,769.016113 808.340820,770.855591 804.013611,771.297546 
	C788.278931,772.904419 786.812317,771.627258 786.805237,755.998718 
	C786.800415,745.499146 786.799316,734.999573 786.795715,724.000000 
z"/>
<path fill="#000000" opacity="1.000000" stroke="none" 
	d="
M851.818970,757.959473 
	C851.805786,735.315735 851.779846,713.165894 851.787292,691.016113 
	C851.789429,684.616760 853.305542,683.038330 859.556824,682.676331 
	C874.593994,681.805542 875.349182,682.508545 875.348938,697.389343 
	C875.348572,719.539185 875.361328,741.688965 875.336670,763.838806 
	C875.330322,769.495239 873.982544,770.903198 868.421997,771.300232 
	C867.261292,771.383179 866.091553,771.348450 864.925964,771.352173 
	C851.820740,771.394409 851.797729,771.370911 851.818970,757.959473 
z"/>
<path fill="#000000" opacity="1.000000" stroke="none" 
	d="
M749.172241,311.229980 
	C742.647949,316.421967 735.586609,318.783142 727.575195,318.436646 
	C721.086060,318.155975 720.575378,317.732513 720.670898,311.166077 
	C720.689880,309.859589 720.842224,308.554993 720.982239,306.542480 
	C730.100037,308.428589 738.315430,307.242004 744.407166,299.689178 
	C747.800232,295.482391 749.179871,290.632721 748.645386,285.235535 
	C747.460693,273.273621 738.836975,267.827209 721.314270,268.154602 
	C721.120483,267.441223 720.774170,266.680847 720.723328,265.901184 
	C720.146912,257.050964 720.622925,256.523560 729.497620,256.598969 
	C742.047546,256.705597 751.222290,262.667450 756.698181,273.660492 
	C762.281799,284.869843 760.986023,295.925964 753.771790,306.180450 
	C752.538635,307.933411 750.906738,309.405884 749.172241,311.229980 
z"/>
<path fill="#000000" opacity="1.000000" stroke="none" 
	d="
M850.186279,658.242371 
	C850.799500,653.683228 851.066406,649.215576 856.014099,647.746826 
	C862.060303,645.951904 868.311340,645.447876 873.828064,649.040222 
	C878.328369,651.970703 878.631592,664.557312 874.352600,668.328857 
	C869.159241,672.906372 862.778442,671.774231 856.746582,670.631042 
	C851.467590,669.630493 850.691772,665.079651 850.173767,660.643616 
	C850.097168,659.987183 850.146301,659.316040 850.186279,658.242371 
z"/>
<path fill="#000000" opacity="1.000000" stroke="none" 
	d="
M639.695068,459.654938 
	C647.967957,461.574982 652.490601,467.341248 651.855286,474.627991 
	C651.232483,481.771149 645.843933,487.029724 638.796021,487.372192 
	C631.335938,487.734680 625.496521,483.220428 624.030640,475.951355 
	C622.484497,468.284210 628.790833,458.184418 639.695068,459.654938 
z"/>
<path fill="#000000" opacity="1.000000" stroke="none" 
	d="
M643.757324,324.673553 
	C650.868347,329.074829 653.394958,335.324768 651.129578,342.134186 
	C649.148010,348.090454 643.479492,351.729492 636.780579,351.345978 
	C630.422485,350.981995 625.372498,346.487579 624.040344,340.007416 
	C621.806335,329.140076 631.639404,321.266479 643.757324,324.673553 
z"/>
<path fill="#000000" opacity="1.000000" stroke="none" 
	d="
M624.380615,205.147614 
	C623.104614,196.896210 626.437622,190.486359 632.850830,188.221100 
	C639.488525,185.876541 646.775757,188.511307 650.084106,194.451950 
	C653.470886,200.533463 652.040588,207.942581 646.617615,212.408142 
	C639.000488,218.680481 628.411072,215.387375 624.380615,205.147614 
z"/>
</svg>